<?xml version="1.0" encoding="utf-8"?>
<!-- Generator: Adobe Illustrator 27.1.1, SVG Export Plug-In . SVG Version: 6.00 Build 0)  -->
<svg version="1.1" id="Layer_1" xmlns="http://www.w3.org/2000/svg" xmlns:xlink="http://www.w3.org/1999/xlink" x="0px" y="0px"
	 viewBox="0 0 3873 3873" style="enable-background:new 0 0 3873 3873;" xml:space="preserve">
<path d="M1045.6,2678.1c-0.2,0-0.4,0-0.6,0c-0.1,0-0.3,0-0.4,0l-621.9-6.1c-85.7-0.8-206.2-11.6-263.9-95.3
	c-41.2-59.8-41.7-141.7-1.6-250.4c23.1-62.6,73.1-144.1,131-238.6c173-282.4,402.9-657.7,192.6-921h832.3v0.6
	c2.8,54.2,14.7,99.3,27.2,147c29.5,111.8,60,227.5-37,442c-27.5,60.7-61.6,114.2-94.7,165.9c-36.5,57.2-71.1,111.3-94.5,171.3
	c-42,107.8-80.9,286.3-29.3,526.5c2,4.9,3,10.2,3,15.8C1087.9,2659.1,1069,2678.1,1045.6,2678.1L1045.6,2678.1z M992.8,1368.7
	c23.3,0,42.3-19,42.3-42.3c0-23.4-19-42.3-42.3-42.3H746c-23.3,0-42.3,19-42.3,42.3s19,42.3,42.3,42.3H992.8L992.8,1368.7z
	 M1142.7,1603.6c23.3,0,42.3-19,42.3-42.3s-19-42.3-42.3-42.3h-379c-23.3,0-42.3,19-42.3,42.3s19,42.3,42.3,42.3H1142.7
	L1142.7,1603.6z M975.1,1838.4c23.4,0,42.3-19,42.3-42.3s-19-42.3-42.3-42.3H728.3c-23.3,0-42.3,19-42.3,42.3s19,42.3,42.3,42.3
	H975.1L975.1,1838.4z M957.5,2073.4c23.4,0,42.3-19,42.3-42.3s-19-42.3-42.3-42.3h-379c-23.4,0-42.3,19-42.3,42.3s19,42.3,42.3,42.3
	H957.5L957.5,2073.4z M807.6,2308.2c23.4,0,42.3-19,42.3-42.3s-19-42.3-42.3-42.3H560.8c-23.3,0-42.3,19-42.3,42.3
	s19,42.3,42.3,42.3H807.6L807.6,2308.2z M790,2543.1c23.4,0,42.3-19,42.3-42.3s-19-42.3-42.3-42.3H543.2c-23.3,0-42.3,19-42.3,42.3
	s19,42.3,42.3,42.3H790z"/>
<path d="M3455,1082.1H405.8c-13.6,0-26.4-6.6-34.4-17.7s-10.1-25.3-5.6-38.3l225.8-663.3c5.9-17.2,22-28.7,40-28.7h292.8v327.4
	c0,23.3,19,42.3,42.3,42.3H1802c23.4,0,42.3-18.9,42.3-42.3V334.2h1593.1l-356.5,356.6H2063.1c-23.3,0-42.3,19-42.3,42.3
	s19,42.3,42.3,42.3h1035.3c11.2,0,22-4.5,30-12.4l368.9-368.9v645.7C3497.3,1063.2,3478.3,1082.1,3455,1082.1L3455,1082.1z
	 M1008.9,334.2v285.1h750.8V334.2H1008.9z"/>
<path d="M3231.1,1413.8H1311.3c-19.6,0-36.6-13.5-41.2-32.5c-3.6-15.1-7.6-30.1-11.6-45.2c-13.1-49.8-26.7-101.3-29.9-164.3
	l-0.2-4.9h2044.9v204.6C3273.4,1394.8,3254.4,1413.8,3231.1,1413.8z"/>
<path d="M3698.7,902.8H3582V513.4h116.8c23.3,0,42.3,19,42.3,42.3v304.8C3741.1,883.9,3722.1,902.8,3698.7,902.8z"/>
<path d="M361,777.2c-18.7-103.2-56.6-181.1-138.5-212l-4-1.4c-28.5-10.1-81.4-28.9-85.2-73.3c-1.2-14,2.1-40.3,37.5-60.1
	c48.4-27.1,151.8-16.9,303.9,1.7l3.7,0.5L361,777.2z"/>
<path d="M1543.9,1965.8h-386.1c-15.4,0-29.7-8.4-37.1-21.9s-6.9-30,1.3-43l15.2-23.9c31.5-49.3,64-100.2,89-155.5
	c75.4-166.8,63-259.6,43.8-340.3c-3-12.6,0-25.8,8-36s20.2-16.1,33.2-16.1h565.3c23.4,0,42.3,19,42.3,42.3v219.3
	C1918.9,1797.6,1750.7,1965.8,1543.9,1965.8L1543.9,1965.8z M1234.8,1881.1h309.1c160.2,0,290.5-130.3,290.5-290.4v-177h-471.5
	c15.1,96,6.3,197.2-59.4,342.7C1283.1,1801.1,1259.2,1842.1,1234.8,1881.1z"/>
<path d="M1629.2,1736.1c-7.2,0-14.5-1.9-21.1-5.7c-132.9-76.8-178.6-247.3-101.9-380.2c11.7-20.2,37.5-27.2,57.8-15.5
	c20.2,11.7,27.2,37.5,15.5,57.8c-53.4,92.5-21.6,211.2,70.9,264.6c20.2,11.7,27.2,37.5,15.5,57.8
	C1658,1728.6,1643.8,1736.1,1629.2,1736.1z"/>
<path d="M2976.8,418.9c-23.3,0-42.3-19-42.3-42.3V180.4c0-23.3,19-42.3,42.3-42.3s42.3,19,42.3,42.3v196.2
	C3019.1,399.9,3000.1,418.9,2976.8,418.9z"/>
</svg>
