<svg xmlns="http://www.w3.org/2000/svg" viewBox="0 0 10.76 19.04"><path d="m8.71,8.3c.69.23,1.21.62,1.55,1.15s.51,1.78.51,3.74c0,1.46-.17,2.59-.5,3.39-.33.8-.9,1.42-1.72,1.83-.81.42-1.86.63-3.13.63-1.45,0-2.58-.24-3.41-.73-.82-.49-1.37-1.08-1.63-1.79s-.39-1.93-.39-3.67v-1.45h4.56v2.97c0,.79.05,1.29.14,1.51s.3.32.63.32c.35,0,.59-.14.7-.41.11-.27.17-.98.17-2.13v-1.27c0-.7-.08-1.21-.24-1.54s-.39-.54-.7-.64c-.31-.1-.91-.16-1.8-.18v-2.66c1.08,0,1.75-.04,2.01-.12.26-.08.44-.26.55-.54.11-.28.17-.72.17-1.31v-1.02c0-.64-.07-1.06-.2-1.27-.13-.2-.34-.31-.61-.31-.32,0-.53.11-.65.32-.12.21-.18.67-.18,1.37v1.5H0v-1.56C0,2.72.4,1.54,1.2.92c.8-.61,2.07-.92,3.81-.92,2.18,0,3.65.43,4.43,1.28.78.85,1.16,2.03,1.16,3.55,0,1.02-.14,1.77-.42,2.22-.28.46-.77.87-1.47,1.25Z"/></svg>