<svg xmlns="http://www.w3.org/2000/svg" viewBox="0 0 640 512"><path d="M 350.83 452.505 L 392.329 452.522 L 405.985 499.23 L 480.396 452.522 L 568.125 452.522 L 568.125 67.191 L 350.83 67.191 L 350.83 452.505 Z M 523.968 410.685 L 474.48 410.685 L 425.061 441.699 L 416.064 410.755 L 394.985 410.685 L 394.985 109.028 L 523.968 109.028 L 523.968 410.685 Z M 314.147 243.5 L 221.458 243.5 C 224.541 195.499 225.356 152.121 225.356 113.384 L 315.971 113.384 C 315.971 113.384 319.462 73.426 300.774 73.868 L 144.021 73.868 C 150.202 50.631 157.961 26.649 167.26 1.833 C 167.26 1.833 124.625 1.833 110.102 40.037 C 104.098 55.802 86.704 116.449 55.725 178.406 C 66.159 177.273 100.661 176.316 120.978 139.068 C 124.715 128.635 125.424 127.271 130.081 113.331 L 181.217 113.331 C 181.217 131.929 179.092 231.791 178.242 243.41 L 85.658 243.41 C 64.864 243.41 58.099 285.247 58.099 285.247 L 174.256 285.247 C 166.463 373.559 124.625 447.987 48.764 506.827 C 85.056 517.189 121.226 505.18 139.098 489.292 C 139.098 489.292 179.799 452.274 202.135 366.634 L 297.71 481.658 C 297.71 481.658 311.721 434.031 295.513 410.826 C 282.089 395.028 245.814 352.27 230.35 336.772 L 204.456 357.353 C 212.178 332.592 216.836 308.557 218.395 285.318 L 327.591 285.318 C 327.591 285.318 327.432 243.482 314.147 243.482 L 314.147 243.5 Z" style=""></path></svg>